# AST/ASF file generated using VICON BodyLanguage
# -----------------------------------------------
:version 1.10
:name VICON
:units
  mass 1.0
  length 0.45
  angle deg
:documentation
   .ast/.asf automatically generated from VICON data using
   VICON BodyBuilder and BodyLanguage model FoxedUp or BRILLIANT.MOD
:root
   order TX TY TZ RX RY RZ
   axis XYZ
   position 0 0 0  
   orientation 0 0 0 
:bonedata
  begin
     id 1 
     name lhipjoint
     direction 0.64773 -0.699417 0.302095 
     length 2.48597 
     axis 0 0 0  XYZ
  end
  begin
     id 2 
     name lfemur
     direction 0.34202 -0.939693 0  
     length 6.71947  
     axis 0 0 20  XYZ
    dof rx ry rz
    limits (-160.0 20.0)
           (-70.0 70.0)
           (-60.0 70.0)
  end
  begin
     id 3 
     name ltibia
     direction 0.34202 -0.939693 0   
     length 8.08777   
     axis 0 0 20   XYZ
    dof rx
    limits (-10.0 170.0)
  end
  begin
     id 4 
     name lfoot
     direction 0.0808503 -0.222134 0.971658   
     length 2.08264   
     axis -90 7.62852e-016 20   XYZ
    dof rx rz
    limits (-45.0 90.0)
           (-70.0 20.0)
  end
  begin
     id 5 
     name ltoes
     direction 1.53502e-011 -4.22007e-011 1   
     length 1.04662   
     axis -90 7.62852e-016 20   XYZ
    dof rx
    limits (-90.0 20.0)
  end
  begin
     id 6 
     name rhipjoint
     direction -0.610924 -0.726792 0.313919   
     length 2.39233  
     axis 0 0 0  XYZ 
  end
  begin
     id 7 
     name rfemur
     direction -0.34202 -0.939693 0   
     length 6.96955   
     axis 0 0 -20   XYZ
    dof rx ry rz
    limits (-160.0 20.0)
           (-70.0 70.0)
           (-70.0 60.0)
  end
  begin
     id 8 
     name rtibia
     direction -0.34202 -0.939693 0   
     length 8.19584   
     axis 0 0 -20   XYZ
    dof rx
    limits (-10.0 170.0)
 end
 begin
     id 9 
     name rfoot
     direction -0.077777 -0.213691 0.9738   
     length 2.07539  
     axis -90 -7.62852e-016 -20   XYZ
    dof rx rz
    limits (-45.0 90.0)
           (-20.0 70.0)
  end
  begin
     id 10 
     name rtoes
     direction -1.53558e-011 -4.22006e-011 1   
     length 1.04381   
     axis -90 -7.62852e-016 -20   XYZ
    dof rx
    limits (-90.0 20.0)
  end
  begin
     id 11 
     name lowerback
     direction -0.00971646 0.996074 0.0879841   
     length 1.67643   
     axis 0 0 0   XYZ
    dof rx ry rz
    limits (-20.0 45.0)
           (-30.0 30.0)
           (-30.0 30.0)
  end
  begin
     id 12 
     name upperback
     direction 0.0127391 0.991676 0.128127   
     length 1.63741   
     axis 0 0 0   XYZ
    dof rx ry rz
    limits (-20.0 45.0)
           (-30.0 30.0)
           (-30.0 30.0)
  end
  begin
     id 13 
     name thorax
     direction 0.0167583 0.996049 0.0872067   
     length 1.65931   
     axis 0 0 0   XYZ
    dof rx ry rz
    limits (-20.0 45.0)
           (-30.0 30.0)
           (-30.0 30.0)
  end
  begin
     id 14 
     name lowerneck
     direction -0.0317829 0.998312 0.0486079   
     length 1.79021   
     axis 0 0 0   XYZ
    dof rx ry rz
    limits (-20.0 45.0)
           (-30.0 30.0)
           (-30.0 30.0)
  end
  begin
     id 15 
     name upperneck
     direction 0.0896851 0.972452 -0.215159   
     length 1.78797   
     axis 0 0 0   XYZ
    dof rx ry rz
    limits (-20.0 45.0)
           (-30.0 30.0)
           (-30.0 30.0)
  end
  begin
     id 16
     name head
     direction 0.0310949 0.996503 -0.0775582  
     length 1.81549  
     axis 0 0 0   XYZ
    dof rx ry rz
    limits (-20.0 45.0)
           (-30.0 30.0)
           (-30.0 30.0)
  end
  begin
     id 17 
     name lclavicle
     direction 0.853638 0.502051 -0.138733  
     length 3.31627  
     axis 0 0 0   XYZ
    dof ry rz
    limits (-20.0 10.0)
           (0.0 20.0)
  end
  begin
     id 18 
     name lhumerus
     direction 1 -4.48962e-011 -1.41788e-018   
     length 5.54893   
     axis 180 -30 -90   XYZ
    dof rx ry rz
    limits (-60.0 90.0)
           (-90.0 90.0)
           (-90.0 90.0)
  end
  begin
     id 19
     name lradius
     direction 1 -4.48962e-011 -4.95754e-027   
     length 3.02898   
     axis 180 -30 -90   XYZ
    dof rx
    limits (-10.0 170.0)
  end
  begin
     id 20
     name lwrist
     direction 1 -4.48952e-011 -1.03764e-026   
     length 1.51449   
     axis 9.09556e-015 90 90   XYZ
    dof ry
    limits (-180.0 0.0)
 end
  begin
     id 21 
     name lhand
     direction 1 -4.4902e-011 -2.07528e-026   
     length 0.640951   
     axis 1.3242e-014 90 90   XYZ
    dof rx rz
    limits (-90.0 90.0)
           (-45.0 45.0)
  end
  begin
     id 22 
     name lfingers
     direction 1 -4.49014e-011 -4.15056e-026   
     length 0.516751   
     axis 2.64841e-014 90 90   XYZ
    dof rx
    limits (0.0 90.0)
  end
  begin
     id 23
     name lthumb
     direction 0.707107 -6.35008e-011 0.707107   
     length 0.741954   
     axis -90 45 2.85299e-015   XYZ
    dof rx rz
    limits (-45.0 45.0)
           (-45.0 45.0)
  end
  begin
     id 24 
     name rclavicle
     direction -0.888531 0.455324 -0.0565039   
     length 3.20126  
     axis 0 0 0   XYZ 
    dof ry rz
    limits (-10.0 20.0)
           (-20.0 0.0)
  end
  begin
     id 25 
     name rhumerus
     direction -1 -4.48946e-011 -8.98298e-028  
     length 5.3519   
     axis 180 30 90   XYZ
    dof rx ry rz
    limits (-90.0 60.0)
           (-90.0 90.0)
           (-90.0 90.0)
  end
  begin
     id 26 
     name rradius
     direction -1 -4.4899e-011 -3.18779e-027   
     length 3.02531   
     axis 180 30 90   XYZ
    dof rx
    limits (-10.0 170.0)
  end
  begin
     id 27 
     name rwrist
     direction -1 -4.4897e-011 -1.03764e-026   
     length 1.51266   
     axis 9.09556e-015 -90 -90   XYZ
    dof ry
    limits (-180.0 0.0)
  end
  begin
     id 28
     name rhand
     direction -1 -4.48941e-011 -2.07528e-026   
     length 0.78389   
     axis 1.3242e-014 -90 -90   XYZ
    dof rx rz
    limits (-90.0 90.0)
           (-45.0 45.0)
  end
  begin
     id 29
     name rfingers
     direction -1 -4.49012e-011 -4.15056e-026   
     length 0.631992   
     axis 2.64841e-014 -90 -90   XYZ
    dof rx
    limits (0.0 90.0)
  end
  begin
     id 30
     name rthumb
     direction -0.707107 -6.3496e-011 0.707107   
     length 0.907418   
     axis -90 -45 -2.85299e-015   XYZ
    dof rx rz
    limits (-45.0 45.0)
           (-45.0 45.0)
  end
:hierarchy
  begin
    root lhipjoint rhipjoint lowerback
    lhipjoint lfemur
    lfemur ltibia
    ltibia lfoot
    lfoot ltoes
    rhipjoint rfemur
    rfemur rtibia
    rtibia rfoot
    rfoot rtoes
    lowerback upperback
    upperback thorax
    thorax lowerneck lclavicle rclavicle
    lowerneck upperneck
    upperneck head
    lclavicle lhumerus
    lhumerus lradius
    lradius lwrist
    lwrist lhand lthumb
    lhand lfingers
    rclavicle rhumerus
    rhumerus rradius
    rradius rwrist
    rwrist rhand rthumb
    rhand rfingers
  end

#!OML:ASF E:\Style3\Style3.ASF
:FULLY-SPECIFIED
:DEGREES
1944
root -0.604123 17.875 0.635897 -502.315 86.6576 -515.597
lowerback -5.98059 0.510409 -1.10049
upperback -5.71186 0.923169 0.988613
thorax -2.57129 0.60041 1.66445
lowerneck -11.0304 -2.94197 -5.25078
upperneck 35.7596 -4.4961 8.683
head 14.4637 -0.93297 3.98179
rclavicle 8.64092e-015 -8.84592e-015
rhumerus 41.5159 44.7764 -750.411
rradius 80.6722
rwrist -8.50687
rhand -13.7844 29.5128
rfingers 7.12502
rthumb 12.3369 -0.103261
lclavicle 8.64092e-015 -8.84592e-015
lhumerus 397.801 -55.2094 1109.8
lradius 116.79
lwrist 16.5255
lhand -15.9781 5.87006
lfingers 7.12502
lthumb 10.2213 35.6017
rfemur -14.7175 9.21079 18.6745
rtibia 14.772
rfoot -12.0369 -20.5811
rtoes -16.0552
lfemur -8.70834 -24.7849 -10.9827
ltibia -2.38542e-015
lfoot -5.64572 25.728
ltoes -15.385
1945
root -0.603103 17.8747 0.630593 -501.661 86.6477 -514.913
lowerback -6.06444 0.508852 -1.05894
upperback -5.83438 0.929404 1.04986
thorax -2.65307 0.608267 1.70465
lowerneck -11.0036 -2.87691 -5.23232
upperneck 35.0526 -4.48889 8.84529
head 14.1315 -0.93419 4.00201
rclavicle -4.29717e-015 -4.17448e-015
rhumerus 41.1855 45.41 -750.504
rradius 80.5913
rwrist -8.63712
rhand -13.6853 29.4926
rfingers 7.12502
rthumb 12.4326 -0.117638
lclavicle -4.29717e-015 -4.17448e-015
lhumerus 398.159 -53.2894 1109.87
lradius 116.856
lwrist 17.9193
lhand -16.758 6.74114
lfingers 7.12502
lthumb 9.46883 36.5084
rfemur -14.6755 9.22174 18.7064
rtibia 14.7669
rfoot -12.077 -20.5738
rtoes -15.9904
lfemur -8.68086 -24.8111 -10.9662
ltibia -1.98785e-014
lfoot -5.47311 25.7401
ltoes -15.899
1946
root -0.599924 17.8743 0.624452 -500.379 86.64 -513.595
lowerback -6.16942 0.664266 -0.872083
upperback -5.98663 1.1381 0.920077
thorax -2.75465 0.709305 1.47347
lowerneck -10.7741 -2.91331 -4.70895
upperneck 34.1898 -4.67083 8.77414
head 13.6899 -0.986837 3.79814
rclavicle -3.13987e-014 -1.00883e-014
rhumerus 40.061 45.8344 -751.268
rradius 80.5182
rwrist -8.6439
rhand -13.7637 29.5739
rfingers 7.12502
rthumb 12.3569 -0.0408753
lclavicle -3.13987e-014 -1.00883e-014
lhumerus 399.291 -51.5974 1109.33
lradius 116.846
lwrist 19.5015
lhand -16.6013 7.39201
lfingers 7.12502
lthumb 9.62 37.1524
rfemur -14.6229 9.24298 18.7705
rtibia 14.7763
rfoot -12.1502 -20.5684
rtoes -15.9094
lfemur -8.61788 -24.8127 -10.931
ltibia -5.56597e-015
lfoot -5.43095 25.7715
ltoes -16.1206
1947
root -0.596523 17.8731 0.617798 -500.105 86.6802 -513.297
lowerback -6.27846 0.824887 -0.775402
upperback -6.12216 1.35559 0.769188
thorax -2.83641 0.816512 1.2718
lowerneck -10.7338 -2.96878 -4.25581
upperneck 33.3839 -4.90005 8.83767
head 13.3364 -1.05235 3.6639
rclavicle 9.5836e-015 2.6339e-015
rhumerus 38.8704 46.1962 -752.083
rradius 80.6027
rwrist -8.63209
rhand -13.8399 29.5935
rfingers 7.12502
rthumb 12.2835 -0.0257112
lclavicle 9.5836e-015 2.6339e-015
lhumerus 400.479 -49.8823 1108.81
lradius 116.696
lwrist 21.0377
lhand -16.6289 7.10622
lfingers 7.12502
lthumb 9.59344 36.8678
rfemur -14.6063 9.26541 18.7476
rtibia 14.8004
rfoot -12.131 -20.6064
rtoes -16.059
lfemur -8.56324 -24.8161 -10.9836
ltibia -1.19271e-014
lfoot -4.99168 25.7902
ltoes -17.4382
1948
root -0.593927 17.8727 0.611352 -501.785 86.783 -514.971
lowerback -6.38294 0.610586 -1.00118
upperback -6.23626 1.09183 1.01462
thorax -2.90005 0.702736 1.64269
lowerneck -10.9872 -2.72031 -4.63084
upperneck 32.8526 -4.54235 9.06023
head 13.1433 -0.940645 3.84157
rclavicle 1.8049e-014 7.65321e-015
rhumerus 39.3735 47.1511 -751.562
rradius 80.8349
rwrist -8.73797
rhand -14.1344 29.3187
rfingers 7.12502
rthumb 11.9995 -0.317335
lclavicle 1.8049e-014 7.65321e-015
lhumerus 399.981 -47.6795 1109.77
lradius 116.31
lwrist 22.3441
lhand -16.7936 6.70352
lfingers 7.12502
lthumb 9.43445 36.4723
rfemur -14.6116 9.32346 18.5696
rtibia 14.8359
rfoot -12.1601 -20.643
rtoes -16.1777
lfemur -8.54066 -24.8408 -11.1607
ltibia 3.10104e-014
lfoot -4.76059 25.7879
ltoes -18.2561
1949
root -0.590119 17.8716 0.604999 -503.528 86.9366 -516.736
lowerback -6.52652 0.405453 -1.24688
upperback -6.39136 0.845005 1.26178
thorax -2.98216 0.600619 2.02768
lowerneck -11.1266 -2.48317 -5.17084
upperneck 32.2583 -4.1944 9.40709
head 12.9065 -0.838247 4.09284
rclavicle 1.95617e-014 1.86858e-014
rhumerus 39.8819 48.1367 -750.956
rradius 81.2369
rwrist -8.8956
rhand -14.0793 28.8551
rfingers 7.12502
rthumb 12.0526 -0.777856
lclavicle 1.95617e-014 1.86858e-014
lhumerus 399.368 -45.4573 1110.91
lradius 115.825
lwrist 23.5212
lhand -16.5039 6.45137
lfingers 7.12502
lthumb 9.71402 36.2074
rfemur -14.6572 9.4483 18.3524
rtibia 14.9115
rfoot -12.2458 -20.6919
rtoes -15.8899
lfemur -8.53911 -24.8182 -11.3614
ltibia 8.74653e-015
lfoot -5.0033 25.8106
ltoes -17.5159
1950
root -0.584288 17.8715 0.598972 -503.014 86.9955 -516.227
lowerback -6.6748 0.368528 -1.2371
upperback -6.54039 0.809399 1.3338
thorax -3.05552 0.59073 2.09615
lowerneck -11.2721 -2.38657 -5.38043
upperneck 31.5814 -4.12912 9.77284
head 12.6598 -0.814798 4.24703
rclavicle -2.6339e-015 7.7526e-015
rhumerus 39.6965 48.8128 -750.948
rradius 81.549
rwrist -9.17442
rhand -13.9454 28.8166
rfingers 7.12502
rthumb 12.1817 -0.808744
lclavicle -2.6339e-015 7.7526e-015
lhumerus 399.586 -43.4335 1111.45
lradius 115.248
lwrist 24.5498
lhand -15.8877 6.55112
lfingers 7.12502
lthumb 10.3084 36.2785
rfemur -14.6726 9.47714 18.3204
rtibia 14.9641
rfoot -12.3835 -20.6254
rtoes -15.512
lfemur -8.48996 -24.7975 -11.4162
ltibia 1.59028e-015
lfoot -4.96033 25.8654
ltoes -17.4493
1951
root -0.578112 17.8694 0.593038 -502.127 87.0687 -515.322
lowerback -6.81609 0.323486 -1.2128
upperback -6.66798 0.761364 1.41885
thorax -3.10981 0.573552 2.16953
lowerneck -11.4054 -2.29095 -5.53987
upperneck 30.784 -4.03623 10.012
head 12.3576 -0.794309 4.33736
rclavicle 8.74653e-015 -4.77083e-015
rhumerus 39.6166 49.5011 -750.859
rradius 81.9027
rwrist -9.43623
rhand -14.0605 29.0122
rfingers 7.12502
rthumb 12.0708 -0.619695
lclavicle 8.74653e-015 -4.77083e-015
lhumerus 399.873 -41.3855 1111.85
lradius 114.64
lwrist 25.6505
lhand -15.5009 6.97037
lfingers 7.12502
lthumb 10.6816 36.6788
rfemur -14.6389 9.55237 18.3049
rtibia 14.9636
rfoot -12.4101 -20.6434
rtoes -15.4502
lfemur -8.41071 -24.7559 -11.4703
ltibia 1.19271e-014
lfoot -4.83357 25.8495
ltoes -17.9196
1952
root -0.573483 17.8681 0.588294 -501.34 87.1051 -514.487
lowerback -6.85548 0.227609 -1.20147
upperback -6.83284 0.647511 1.53012
thorax -3.25723 0.526237 2.27352
lowerneck -11.3723 -2.15489 -5.562
upperneck 29.8091 -3.84518 10.0176
head 11.9363 -0.751978 4.3138
rclavicle 9.69075e-016 -1.31198e-014
rhumerus 39.5791 50.3093 -750.778
rradius 82.4767
rwrist -9.66579
rhand -14.3059 28.9354
rfingers 7.12502
rthumb 11.8342 -0.710212
lclavicle 9.69075e-016 -1.31198e-014
lhumerus 400.123 -39.4 1112.16
lradius 113.999
lwrist 26.754
lhand -15.4897 7.28749
lfingers 7.12502
lthumb 10.6924 36.9954
rfemur -14.5323 9.67903 18.3039
rtibia 14.8839
rfoot -12.3607 -20.7475
rtoes -15.6983
lfemur -8.31513 -24.7463 -11.497
ltibia -2.94201e-014
lfoot -4.62332 25.8197
ltoes -18.6073
1953
root -0.56754 17.8683 0.581897 -500.759 87.1426 -513.895
lowerback -6.91256 0.161826 -1.18305
upperback -7.02712 0.575598 1.60724
thorax -3.42723 0.50037 2.34
lowerneck -11.2906 -2.0365 -5.55041
upperneck 28.7682 -3.70294 10.0997
head 11.4953 -0.718894 4.30611
rclavicle -3.40419e-015 -2.82274e-014
rhumerus 39.362 51.1089 -750.789
rradius 83.0715
rwrist -9.89631
rhand -14.4509 29.0263
rfingers 7.12502
rthumb 11.6944 -0.627267
lclavicle -3.40419e-015 -2.82274e-014
lhumerus 400.535 -37.5401 1112.35
lradius 113.226
lwrist 27.8089
lhand -15.6298 7.31234
lfingers 7.12502
lthumb 10.5573 37.0272
rfemur -14.4433 9.78565 18.2802
rtibia 14.7808
rfoot -12.3382 -20.8146
rtoes -15.9959
lfemur -8.24638 -24.7416 -11.537
ltibia -2.70347e-014
lfoot -4.39511 25.8125
ltoes -19.56
1954
root -0.561347 17.8695 0.576458 -499.699 87.1862 -512.848
lowerback -6.96919 0.113382 -1.17425
upperback -7.22218 0.528207 1.69423
thorax -3.60009 0.487873 2.42327
lowerneck -11.1961 -1.93545 -5.58559
upperneck 27.6372 -3.59447 10.2807
head 11.0338 -0.696722 4.33741
rclavicle -9.0447e-015 -3.57812e-015
rhumerus 39.1859 51.8918 -750.692
rradius 83.6426
rwrist -10.0605
rhand -14.6482 29.1133
rfingers 7.12502
rthumb 11.5041 -0.551017
lclavicle -9.0447e-015 -3.57812e-015
lhumerus 401.038 -35.7351 1112.45
lradius 112.343
lwrist 28.6842
lhand -15.7503 7.23206
lfingers 7.12502
lthumb 10.441 36.9528
rfemur -14.3882 9.77433 18.2856
rtibia 14.6669
rfoot -12.2703 -20.727
rtoes -16.2026
lfemur -8.19085 -24.7134 -11.5505
ltibia 7.15625e-015
lfoot -4.32135 25.8147
ltoes -20.1338
1955
root -0.553455 17.8703 0.571565 -498.749 87.2537 -511.943
lowerback -7.07359 0.053945 -1.18873
upperback -7.40331 0.466644 1.76528
thorax -3.73123 0.46838 2.50317
lowerneck -11.1184 -1.80006 -5.5902
upperneck 26.4035 -3.45051 10.5281
head 10.5456 -0.650449 4.38886
rclavicle 1.06847e-015 2.38542e-015
rhumerus 39.1189 52.6067 -750.544
rradius 84.2827
rwrist -10.5945
rhand -14.5689 29.1894
rfingers 7.12502
rthumb 11.5805 -0.470677
lclavicle 1.06847e-015 2.38542e-015
lhumerus 401.647 -33.9859 1112.54
lradius 111.313
lwrist 29.2986
lhand -15.6884 7.17704
lfingers 7.12502
lthumb 10.5008 36.8948
rfemur -14.3666 9.85171 18.2604
rtibia 14.5759
rfoot -12.1931 -20.7669
rtoes -16.5737
lfemur -8.17177 -24.6664 -11.567
ltibia -8.74653e-015
lfoot -4.55059 25.7896
ltoes -19.7385
1956
root -0.545459 17.8708 0.567469 -498.645 87.3576 -511.922
lowerback -7.2317 0.0260447 -1.24469
upperback -7.59689 0.449467 1.7832
thorax -3.84805 0.472385 2.5532
lowerneck -11.0229 -1.72645 -5.76703
upperneck 25.1208 -3.39316 10.9715
head 10.062 -0.639808 4.53119
rclavicle -1.2275e-014 -2.18663e-014
rhumerus 38.9008 53.2634 -750.457
rradius 85.0521
rwrist -11.2698
rhand -14.4583 29.1757
rfingers 7.12502
rthumb 11.6872 -0.478325
lclavicle -1.2275e-014 -2.18663e-014
lhumerus 402.428 -32.4012 1112.65
lradius 110.348
lwrist 30.168
lhand -15.4274 7.47386
lfingers 7.12502
lthumb 10.7525 37.1787
rfemur -14.3798 9.94418 18.1548
rtibia 14.4819
rfoot -12.2879 -20.7658
rtoes -16.3307
lfemur -8.20933 -24.6166 -11.6281
ltibia -1.19271e-014
lfoot -4.60672 25.8052
ltoes -19.6303
1957
root -0.54077 17.8705 0.564441 -498.263 87.457 -511.627
lowerback -7.30889 -0.00567084 -1.30949
upperback -7.81349 0.428701 1.8145
thorax -4.03467 0.476924 2.62141
lowerneck -10.9526 -1.6703 -5.94982
upperneck 23.867 -3.3445 11.406
head 9.60511 -0.633562 4.67142
rclavicle 7.33018e-015 -1.86858e-014
rhumerus 38.6822 53.988 -750.322
rradius 85.887
rwrist -11.5283
rhand -14.6674 29.0803
rfingers 7.12502
rthumb 11.4855 -0.585068
lclavicle 7.33018e-015 -1.86858e-014
lhumerus 403.15 -30.858 1112.86
lradius 109.202
lwrist 30.8332
lhand -14.88 7.65475
lfingers 7.12502
lthumb 11.2805 37.3314
rfemur -14.4189 10.082 18.0642
rtibia 14.3653
rfoot -12.2382 -20.8221
rtoes -16.4078
lfemur -8.27505 -24.5607 -11.6661
ltibia -1.74931e-014
lfoot -4.65365 25.8985
ltoes -19.2725
1958
root -0.53425 17.8702 0.560299 -496.241 87.5097 -509.707
lowerback -7.41309 -0.04762 -1.26979
upperback -8.03244 0.392437 1.8746
thorax -4.20766 0.47004 2.66051
lowerneck -10.8197 -1.57481 -5.90715
upperneck 22.5024 -3.2171 11.6045
head 9.09234 -0.60201 4.69119
rclavicle -2.48481e-015 -1.19271e-014
rhumerus 38.6131 54.6988 -750.138
rradius 86.727
rwrist -11.6499
rhand -14.8527 28.874
rfingers 7.12502
rthumb 11.3068 -0.801256
lclavicle -2.48481e-015 -1.19271e-014
lhumerus 403.711 -29.3036 1113.25
lradius 108.022
lwrist 31.0756
lhand -13.9687 8.3177
lfingers 7.12502
lthumb 12.1593 37.9443
rfemur -14.4624 10.081 18.0718
rtibia 14.2436
rfoot -12.1724 -20.739
rtoes -16.2926
lfemur -8.34742 -24.4883 -11.6085
ltibia -2.14687e-014
lfoot -4.86882 25.9496
ltoes -18.3673
